HIERARCHY
ROOT hip
{
	OFFSET 0.000000 0.000000 0.000000 
	CHANNELS 6 Xposition Yposition Zposition Xrotation Zrotation Yrotation
	JOINT abdomen
	{
		OFFSET 0.000000 3.402643 0.000000 
		CHANNELS 3 Xrotation Zrotation Yrotation
		JOINT chest
		{
			OFFSET 0.000000 8.438565 -0.680529 
			CHANNELS 3 Xrotation Zrotation Yrotation
			JOINT neck
			{
				OFFSET 0.000000 10.207942 -0.272212 
				CHANNELS 3 Xrotation Zrotation Yrotation
				JOINT head
				{
					OFFSET 0.000000 3.130431 0.000000 
					CHANNELS 3 Xrotation Zrotation Yrotation
					JOINT figureHair
					{
						OFFSET 0.000000 3.130435 0.000000 
						CHANNELS 3 Zrotation Yrotation Xrotation
						End Site
						{
							OFFSET 0.000000 -6.419331 0.000000 
						}
					}
				}
			}
			JOINT lCollar
			{
				OFFSET 3.470700 6.669187 -0.816635 
				CHANNELS 3 Yrotation Zrotation Xrotation
				JOINT lShldr
				{
					OFFSET 3.198488 0.000000 0.000000 
					CHANNELS 3 Zrotation Yrotation Xrotation
					JOINT lForeArm
					{
						OFFSET 10.139888 0.000000 0.000000 
						CHANNELS 3 Yrotation Zrotation Xrotation
						JOINT lHand
						{
							OFFSET 8.370511 0.000000 0.000000 
							CHANNELS 3 Zrotation Yrotation Xrotation
							End Site
							{
								OFFSET 4.083176 0.000000 0.000000 
							}
						}
					}
				}
			}
			JOINT rCollar
			{
				OFFSET -3.470700 6.669187 -0.816635 
				CHANNELS 3 Yrotation Zrotation Xrotation
				JOINT rShldr
				{
					OFFSET -3.198488 0.000000 0.000000 
					CHANNELS 3 Zrotation Yrotation Xrotation
					JOINT rForeArm
					{
						OFFSET -10.139888 0.000000 0.000000 
						CHANNELS 3 Yrotation Zrotation Xrotation
						JOINT rHand
						{
							OFFSET -8.370511 0.000000 0.000000 
							CHANNELS 3 Zrotation Yrotation Xrotation
							End Site
							{
								OFFSET -4.083176 0.000000 0.000000 
							}
						}
					}
				}
			}
		}
	}
	JOINT lThigh
	{
		OFFSET 5.308129 -1.633274 1.361059 
		CHANNELS 3 Xrotation Zrotation Yrotation
		JOINT lShin
		{
			OFFSET -2.041588 -20.007561 0.000000 
			CHANNELS 3 Xrotation Zrotation Yrotation
			JOINT lFoot
			{
				OFFSET 0.000000 -19.190928 -1.224953 
				CHANNELS 3 Xrotation Yrotation Zrotation
				End Site
				{
					OFFSET 0.000000 -2.449906 4.627600 
				}
			}
		}
	}
	JOINT rThigh
	{
		OFFSET -5.308129 -1.633274 1.361059 
		CHANNELS 3 Xrotation Zrotation Yrotation
		JOINT rShin
		{
			OFFSET 2.041588 -20.007561 0.000000 
			CHANNELS 3 Xrotation Zrotation Yrotation
			JOINT rFoot
			{
				OFFSET 0.000000 -19.190928 -1.224953 
				CHANNELS 3 Xrotation Yrotation Zrotation
				End Site
				{
					OFFSET 0.000000 -2.449906 4.627600 
				}
			}
		}
	}
}
MOTION
Frames: 16
Frame Time: 0.100000
0.000000 49.218567 0.278242 67.327904 4.428230 2.041550 -0.374502 0.061701 0.000798 -16.184500 -3.614630 0.401002 -11.828700 3.096340 -0.715548 -12.478100 -7.768960 0.883600 0.000000 0.000000 0.000000 2.000047 -5.687485 -0.065138 -51.302521 10.043064 -14.231698 -22.567696 -9.494221 -7.861219 5.969490 -0.173112 -23.824301 -2.021920 5.690310 -0.063351 53.640091 -14.304286 5.457470 22.674223 9.469271 -19.879633 -5.929489 0.194137 -16.825970 -8.563267 3.662963 -0.120384 22.871855 -1.606613 -1.319049 34.711536 2.345636 -1.729388 -6.068141 -6.237437 -0.414362 23.972239 -0.878478 1.206298 36.091064 -0.584662 2.008076 
0.000000 49.111847 0.278242 67.327904 4.428230 2.041550 -0.511992 0.368621 0.124474 -16.184500 -3.614630 0.401002 -11.828700 3.096340 -0.715548 -12.478100 -7.768960 0.883600 0.000000 0.000000 0.000000 1.968587 -5.683421 -0.067708 -52.334774 10.173640 -14.959328 -22.620365 -9.679386 -7.868990 5.969490 -0.173112 -23.824301 -2.021920 5.690310 -0.063351 51.274471 -12.820641 6.194649 22.862879 9.668199 -19.911942 -5.877305 0.221566 -16.828148 -8.805850 3.547250 -0.158418 23.615292 -1.451083 -1.375451 35.718208 1.895873 -1.786965 -6.194426 -5.684288 -0.396274 24.017439 -0.901625 1.206167 37.906849 -0.123927 2.016442 
0.000000 48.993347 0.278242 67.327896 4.428230 2.041550 -0.597654 0.624971 0.227950 -16.184500 -3.614630 0.401002 -11.828698 3.096340 -0.715548 -12.478099 -7.768960 0.883600 0.000000 0.000000 0.000000 1.928986 -5.678305 -0.070944 -53.180561 10.368445 -15.651405 -22.669384 -9.845471 -7.875139 5.969489 -0.173112 -23.824297 -2.021920 5.690309 -0.063351 49.000576 -11.678542 6.890820 23.062298 9.879951 -19.945951 -5.816856 0.253338 -16.830671 -9.045492 3.524492 -0.187716 24.364935 -1.301692 -1.431693 36.707520 1.493632 -1.843981 -6.283377 -5.113494 -0.377470 24.075243 -0.970944 1.206013 39.630596 0.270191 2.022169 
0.000000 48.870686 0.278242 67.327888 4.428229 2.041549 -0.525509 0.704880 0.260808 -16.184500 -3.614629 0.401002 -11.828695 3.096339 -0.715548 -12.478096 -7.768958 0.883600 0.000000 0.000000 0.000000 1.882528 -5.672303 -0.074739 -53.388699 10.719700 -16.152901 -22.720232 -10.017869 -7.881532 5.969488 -0.173112 -23.824291 -2.021919 5.690308 -0.063351 47.281898 -11.651500 7.380440 23.268818 10.099231 -19.981171 -5.749829 0.288568 -16.833471 -9.245660 3.767760 -0.188483 25.034700 -1.189100 -1.480170 37.519100 1.278170 -1.892000 -6.255110 -4.566970 -0.359088 24.161200 -1.161920 1.205810 40.869801 0.424544 2.019680 
0.000000 48.751480 0.278242 67.327888 4.428229 2.041548 -0.224621 0.523025 0.188808 -16.184502 -3.614629 0.401002 -11.828694 3.096339 -0.715548 -12.478095 -7.768958 0.883599 0.000000 0.000000 0.000000 1.830493 -5.665582 -0.078990 -52.658436 11.288918 -16.352844 -22.778410 -10.221982 -7.890043 5.969487 -0.173112 -23.824287 -2.021919 5.690307 -0.063351 46.477421 -13.248776 7.543064 23.478802 10.320753 -20.017124 -5.677912 0.326369 -16.836477 -9.372065 4.384874 -0.147169 25.556486 -1.133261 -1.515153 38.038147 1.348974 -1.924899 -6.054000 -4.090548 -0.343268 24.284416 -1.524866 1.205559 41.343147 0.216370 2.005325 
0.000000 48.643345 0.278242 67.327888 4.428229 2.041548 0.235767 0.156263 0.042419 -16.184502 -3.614628 0.401002 -11.828692 3.096339 -0.715548 -12.478093 -7.768957 0.883599 0.000000 0.000000 0.000000 1.774162 -5.658305 -0.083592 -51.290730 12.014804 -16.316517 -22.849401 -10.483205 -7.902540 5.969485 -0.173112 -23.824280 -2.021919 5.690305 -0.063351 46.528172 -15.922662 7.438638 23.688597 10.539223 -20.053322 -5.602788 0.365854 -16.839613 -9.399394 5.222651 -0.075195 25.934145 -1.111326 -1.538419 38.332165 1.646444 -1.945817 -5.721470 -3.745755 -0.336174 24.428249 -2.009408 1.205354 41.214092 -0.275560 1.983146 
0.000000 48.553890 0.278242 67.327881 4.428228 2.041547 0.751368 -0.278001 -0.131711 -16.184500 -3.614628 0.401002 -11.828689 3.096338 -0.715547 -12.478089 -7.768955 0.883599 0.000000 0.000000 0.000000 1.714818 -5.650640 -0.088441 -49.736984 12.805358 -16.153267 -22.938686 -10.826933 -7.920891 5.969482 -0.173112 -23.824268 -2.021918 5.690303 -0.063351 47.270721 -18.861208 7.172213 23.894545 10.749348 -20.089272 -5.526145 0.406138 -16.842810 -9.304584 6.062661 0.009772 26.189529 -1.089747 -1.553623 38.514233 2.071210 -1.960211 -5.323205 -3.598046 -0.344976 24.569624 -2.539998 1.205316 40.757305 -0.922091 1.959113 
0.000000 48.490749 0.278242 67.327881 4.428227 2.041546 1.217895 -0.662364 -0.286938 -16.184500 -3.614628 0.401002 -11.828686 3.096337 -0.715547 -12.478086 -7.768953 0.883598 0.000000 0.000000 0.000000 1.653743 -5.642752 -0.093431 -48.448605 13.568588 -15.972444 -23.051758 -11.278565 -7.946968 5.969480 -0.173112 -23.824261 -2.021917 5.690301 -0.063351 48.541645 -21.252472 6.848836 24.092997 10.945837 -20.124495 -5.449671 0.446334 -16.846003 -9.064569 6.686474 0.090066 26.344498 -1.034973 -1.564418 38.697449 2.523906 -1.973537 -4.924893 -3.712874 -0.376842 24.685467 -3.041090 1.205564 40.247452 -1.594070 1.939195 
0.000000 48.461521 0.278242 67.327881 4.428227 2.041545 1.531060 -0.879421 -0.376613 -16.184500 -3.614628 0.401002 -11.828683 3.096336 -0.715547 -12.478085 -7.768952 0.883598 0.000000 0.000000 0.000000 1.592218 -5.634805 -0.098457 -47.876999 14.212500 -15.883400 -23.194099 -11.863500 -7.982640 5.969478 -0.173112 -23.824253 -2.021916 5.690300 -0.063351 50.177502 -22.284500 6.573560 24.280300 11.123400 -20.158501 -5.375051 0.485555 -16.849115 -8.656290 6.875660 0.148021 26.420900 -0.913457 -1.574460 38.994900 2.905160 -1.991250 -4.592220 -4.155690 -0.438942 24.752701 -3.437140 1.206220 39.959202 -2.162340 1.929360 
0.000000 48.471478 0.278242 67.327881 4.428227 2.041545 1.613324 -0.845044 -0.367266 -16.184498 -3.614627 0.401001 -11.828680 3.096335 -0.715547 -12.478082 -7.768951 0.883598 0.000000 0.000000 0.000000 1.531524 -5.626966 -0.103416 -48.341579 14.679441 -15.975366 -23.363661 -12.594254 -8.027591 5.969476 -0.173112 -23.824245 -2.021915 5.690300 -0.063351 52.010147 -21.413780 6.422555 24.454494 11.280447 -20.191153 -5.303970 0.522915 -16.852079 -8.072337 6.487501 0.171168 26.444485 -0.702563 -1.586700 39.485218 3.136421 -2.017292 -4.370642 -4.943112 -0.534154 24.761587 -3.673534 1.207124 40.091511 -2.521947 1.933646 
0.000000 48.516453 0.278242 67.327881 4.428226 2.041544 1.494138 -0.608198 -0.278124 -16.184498 -3.614627 0.401001 -11.828677 3.096334 -0.715547 -12.478080 -7.768951 0.883597 0.000000 0.000000 0.000000 1.472943 -5.619401 -0.108202 -49.633793 15.049148 -16.257109 -23.528238 -13.431838 -8.072771 5.969474 -0.173112 -23.824240 -2.021915 5.690300 -0.063351 53.852543 -19.170534 6.356483 24.620390 11.430215 -20.223719 -5.238118 0.557527 -16.854828 -7.367944 5.682135 0.167829 26.456593 -0.423321 -1.601283 40.109196 3.222404 -2.049545 -4.224698 -5.896408 -0.648191 24.755724 -3.779397 1.207002 40.540546 -2.664732 1.948366 
0.000000 48.589924 0.278242 67.327888 4.428226 2.041543 1.229703 -0.251127 -0.141593 -16.184500 -3.614628 0.401001 -11.828676 3.096334 -0.715547 -12.478079 -7.768951 0.883597 0.000000 0.000000 0.000000 1.417756 -5.612274 -0.112711 -51.413109 15.435704 -16.717291 -23.648098 -14.324387 -8.106948 5.969474 -0.173112 -23.824238 -2.021914 5.690301 -0.063351 55.512939 -16.353416 6.307127 24.784504 11.589650 -20.257820 -5.179179 0.588506 -16.857286 -6.614005 4.695414 0.151522 26.502472 -0.107673 -1.617654 40.773190 3.188641 -2.084377 -4.098696 -6.788011 -0.762476 24.792049 -3.804787 1.204302 41.126793 -2.606737 1.967900 
0.000000 48.685383 0.278242 67.327881 4.428226 2.041543 0.876218 0.143929 0.009924 -16.184498 -3.614627 0.401001 -11.828674 3.096334 -0.715547 -12.478076 -7.768950 0.883597 0.000000 0.000000 0.000000 1.367246 -5.605750 -0.116837 -53.338989 15.953194 -17.344568 -23.683498 -15.220030 -8.118889 5.969472 -0.173112 -23.824234 -2.021913 5.690301 -0.063351 56.799576 -13.761088 6.206272 24.953339 11.775698 -20.295074 -5.128839 0.614965 -16.859385 -5.881413 3.763192 0.135764 26.627361 0.212436 -1.635255 41.383545 3.060666 -2.118156 -3.936948 -7.390354 -0.858431 24.927496 -3.799766 1.197472 41.670719 -2.364003 1.986632 
0.000000 48.796307 0.278242 67.327896 4.428226 2.041543 0.489882 0.494729 0.144024 -16.184500 -3.614628 0.401001 -11.828676 3.096334 -0.715547 -12.478077 -7.768952 0.883597 0.000000 0.000000 0.000000 1.322693 -5.599996 -0.120477 -55.070900 16.715700 -18.127600 -23.594700 -16.066900 -8.097360 5.969473 -0.173112 -23.824236 -2.021913 5.690302 -0.063351 57.520699 -12.192200 5.985700 25.133400 12.005300 -20.337099 -5.088787 0.636017 -16.861052 -5.241060 3.121320 0.134076 26.876499 0.505064 -1.653530 41.846600 2.864010 -2.147250 -3.683760 -7.475870 -0.917479 25.219000 -3.814390 1.184960 41.992802 -1.952570 1.998940 
0.000000 48.916183 0.278242 67.327911 4.428226 2.041543 0.124592 0.731774 0.233312 -16.184498 -3.614628 0.401001 -11.828678 3.096334 -0.715547 -12.478078 -7.768953 0.883597 0.000000 0.000000 0.000000 1.285380 -5.595177 -0.123526 -56.339195 17.761763 -19.026453 -23.358156 -16.827051 -8.035543 5.969474 -0.173112 -23.824236 -2.021913 5.690304 -0.063351 57.552292 -12.200768 5.606743 25.332026 12.291854 -20.385530 -5.060707 0.650776 -16.862219 -4.749058 2.929893 0.155505 27.276457 0.741633 -1.671995 42.088520 2.624303 -2.168521 -3.301970 -6.907274 -0.928206 25.701681 -3.885315 1.165814 41.958729 -1.398077 2.000731 
0.000000 49.038486 0.278242 67.327904 4.428226 2.041543 -0.174975 0.836543 0.270430 -16.184490 -3.614628 0.401001 -11.828676 3.096334 -0.715547 -12.478076 -7.768951 0.883597 0.000000 0.000000 0.000000 1.256588 -5.591457 -0.125878 -57.157787 18.827730 -19.886816 -23.015076 -17.518194 -7.944280 5.969474 -0.173112 -23.824230 -2.021913 5.690303 -0.063351 57.041271 -13.362256 5.148922 25.559849 12.634569 -20.442080 -5.046287 0.658356 -16.862816 -4.402389 3.045980 0.191218 27.779106 0.907035 -1.690459 42.114754 2.367560 -2.180811 -2.828521 -5.908406 -0.907860 26.323402 -3.995577 1.141494 41.615028 -0.764544 1.994001 
